<svg id="ic_dashboard_selected" xmlns="http://www.w3.org/2000/svg" width="12.752" height="12.752" viewBox="0 0 12.752 12.752">
  <path id="Path_531" data-name="Path 531" d="M4.915,0H.93A.931.931,0,0,0,0,.93V3.321a.931.931,0,0,0,.93.93H4.915a.931.931,0,0,0,.93-.93V.93A.931.931,0,0,0,4.915,0Zm0,0" fill="#222431"/>
  <path id="Path_532" data-name="Path 532" d="M4.915,213.332H.93a.931.931,0,0,0-.93.93v5.579a.931.931,0,0,0,.93.93H4.915a.931.931,0,0,0,.93-.93v-5.579A.931.931,0,0,0,4.915,213.332Zm0,0" transform="translate(0 -208.019)" fill="#222431"/>
  <path id="Path_533" data-name="Path 533" d="M282.247,341.332h-3.985a.931.931,0,0,0-.93.93v2.391a.931.931,0,0,0,.93.93h3.985a.931.931,0,0,0,.93-.93v-2.391A.931.931,0,0,0,282.247,341.332Zm0,0" transform="translate(-270.425 -332.831)" fill="#222431"/>
  <path id="Path_534" data-name="Path 534" d="M282.247,0h-3.985a.931.931,0,0,0-.93.93V6.509a.931.931,0,0,0,.93.93h3.985a.931.931,0,0,0,.93-.93V.93A.931.931,0,0,0,282.247,0Zm0,0" transform="translate(-270.425)" fill="#222431"/>
</svg>
