<svg xmlns="http://www.w3.org/2000/svg" width="12.31" height="16.414" viewBox="0 0 12.31 16.414">
  <path id="ic_password" d="M75.969,6.155H74.943V4.787a4.787,4.787,0,0,0-9.575,0V6.155H64.342A.342.342,0,0,0,64,6.5v8.549a1.369,1.369,0,0,0,1.368,1.368h9.575a1.369,1.369,0,0,0,1.368-1.368V6.5A.342.342,0,0,0,75.969,6.155ZM71.179,13.3a.342.342,0,0,1-.34.38H69.471a.342.342,0,0,1-.34-.38l.216-1.94a1.353,1.353,0,0,1-.56-1.1,1.368,1.368,0,1,1,2.736,0,1.353,1.353,0,0,1-.56,1.1Zm1.712-7.143H67.42V4.787a2.736,2.736,0,0,1,5.471,0Z" transform="translate(-64)" fill="#707070"/>
</svg>
