<svg xmlns="http://www.w3.org/2000/svg" width="20" height="20" viewBox="0 0 20 20">
  <path id="Path_3662" data-name="Path 3662" d="M380.54,223h3.38a2.548,2.548,0,0,1,2.54,2.561v3.409a2.542,2.542,0,0,1-2.54,2.56h-3.38a2.548,2.548,0,0,1-2.54-2.56v-3.409A2.555,2.555,0,0,1,380.54,223Zm0,11.47h3.38a2.542,2.542,0,0,1,2.54,2.561v3.409a2.548,2.548,0,0,1-2.54,2.56h-3.38a2.554,2.554,0,0,1-2.54-2.56v-3.409a2.549,2.549,0,0,1,2.54-2.561ZM395.46,223h-3.38a2.548,2.548,0,0,0-2.54,2.561v3.409a2.542,2.542,0,0,0,2.54,2.56h3.38a2.548,2.548,0,0,0,2.54-2.56v-3.409A2.555,2.555,0,0,0,395.46,223Zm-3.38,11.47h3.38a2.549,2.549,0,0,1,2.54,2.561v3.409a2.554,2.554,0,0,1-2.54,2.56h-3.38a2.548,2.548,0,0,1-2.54-2.56v-3.409a2.542,2.542,0,0,1,2.54-2.561Z" transform="translate(-378 -223)" fill="#61373f" fill-rule="evenodd"/>
</svg>
